<svg width="10" height="9" viewBox="0 0 10 9" fill="none" xmlns="http://www.w3.org/2000/svg">
<path d="M9.76206 1.36532e-07H8.822C8.78978 -3.26185e-05 8.75789 0.00582857 8.72826 0.0172283C8.69863 0.028628 8.67188 0.0453288 8.64963 0.0663178C8.62738 0.0873068 8.61009 0.112147 8.59882 0.139332C8.58755 0.166516 8.58253 0.195479 8.58406 0.224464L8.66338 1.70232C8.20224 1.21294 7.62824 0.819925 6.98133 0.55061C6.33441 0.281295 5.63011 0.14215 4.91742 0.142857C2.20768 0.142857 -0.00198149 2.13446 1.33342e-06 4.57482C0.00198416 7.0191 2.20292 9 4.91742 9C6.13508 9.00154 7.30975 8.59469 8.21248 7.85875C8.2366 7.83931 8.25605 7.81565 8.26967 7.78921C8.28328 7.76277 8.29076 7.7341 8.29165 7.70497C8.29254 7.67583 8.28683 7.64684 8.27485 7.61977C8.26287 7.59269 8.24489 7.5681 8.222 7.5475L7.54784 6.94035C7.50517 6.90194 7.44789 6.87955 7.38759 6.87773C7.3273 6.87591 7.26848 6.89478 7.22305 6.93053C6.69035 7.35261 6.02746 7.61843 5.32273 7.69256C4.61801 7.76669 3.90493 7.6456 3.27857 7.34544C2.65221 7.04528 2.14232 6.58031 1.81687 6.01251C1.49143 5.44471 1.36589 4.80106 1.457 4.16736C1.5481 3.53367 1.85152 2.94004 2.32681 2.46561C2.8021 1.99118 3.42667 1.65849 4.11726 1.5119C4.80785 1.3653 5.53165 1.41176 6.19218 1.64509C6.8527 1.87841 7.41856 2.28751 7.81433 2.81786L5.80116 2.73089C5.76898 2.72951 5.73682 2.73404 5.70663 2.74419C5.67645 2.75434 5.64886 2.7699 5.62556 2.78994C5.60225 2.80998 5.58371 2.83407 5.57105 2.86075C5.55839 2.88744 5.55188 2.91616 5.55192 2.94518V3.79178C5.55192 3.84862 5.57699 3.90312 5.62161 3.94331C5.66623 3.98349 5.72675 4.00607 5.78986 4.00607H9.76206C9.82517 4.00607 9.88569 3.98349 9.93031 3.94331C9.97493 3.90312 10 3.84862 10 3.79178V0.214286C10 0.157454 9.97493 0.102949 9.93031 0.0627629C9.88569 0.0225766 9.82517 1.36532e-07 9.76206 1.36532e-07Z" fill="white"/>
</svg>
