<svg width="99" height="102" viewBox="0 0 99 102" fill="none" xmlns="http://www.w3.org/2000/svg">
<path d="M0 43.7143H42.4286V0H0V43.7143ZM14.1429 14.5714H28.2857V29.1429H14.1429V14.5714ZM56.5714 0V43.7143H99V0H56.5714ZM84.8571 29.1429H70.7143V14.5714H84.8571V29.1429ZM0 102H42.4286V58.2857H0V102ZM14.1429 72.8571H28.2857V87.4286H14.1429V72.8571ZM91.9286 58.2857H99V87.4286H77.7857V80.1429H70.7143V102H56.5714V58.2857H77.7857V65.5714H91.9286V58.2857ZM91.9286 94.7143H99V102H91.9286V94.7143ZM77.7857 94.7143H84.8571V102H77.7857V94.7143Z" fill="#0084E2"/>
</svg>
