<svg width="16" height="17" viewBox="0 0 16 17" fill="none" xmlns="http://www.w3.org/2000/svg">
<path d="M16 8.5C16 13.1944 12.4183 17 8 17C3.58171 17 0 13.1944 0 8.5C0 3.80557 3.58171 0 8 0C12.4183 0 16 3.80557 16 8.5ZM7.07464 13.0007L13.0101 6.69423C13.2117 6.48008 13.2117 6.13285 13.0101 5.91871L12.2802 5.14319C12.0787 4.92901 11.7519 4.92901 11.5503 5.14319L6.70968 10.2863L4.44971 7.88509C4.24816 7.67094 3.92135 7.67094 3.71977 7.88509L2.98987 8.66061C2.78832 8.87475 2.78832 9.22199 2.98987 9.43613L6.34471 13.0006C6.54629 13.2148 6.87306 13.2148 7.07464 13.0007Z" fill="white"/>
</svg>
