<svg width="19" height="17" viewBox="0 0 19 17" fill="none" xmlns="http://www.w3.org/2000/svg">
<path d="M17.2188 0H1.78125C0.797852 0 0 0.815848 0 1.82143V15.1786C0 16.1842 0.797852 17 1.78125 17H17.2188C18.2021 17 19 16.1842 19 15.1786V1.82143C19 0.815848 18.2021 0 17.2188 0ZM14.1164 11.0234C14.2945 11.2056 14.2945 11.5016 14.1164 11.6837L12.6135 13.2205C12.4354 13.4027 12.1459 13.4027 11.9678 13.2205L9.5 10.6743L7.03223 13.2205C6.8541 13.4027 6.56465 13.4027 6.38652 13.2205L4.88359 11.6837C4.70547 11.5016 4.70547 11.2056 4.88359 11.0234L7.37363 8.5L4.88359 5.97656C4.70547 5.79442 4.70547 5.49844 4.88359 5.3163L6.38652 3.77946C6.56465 3.59732 6.8541 3.59732 7.03223 3.77946L9.5 6.32567L11.9678 3.77946C12.1459 3.59732 12.4354 3.59732 12.6135 3.77946L14.1164 5.3163C14.2945 5.49844 14.2945 5.79442 14.1164 5.97656L11.6264 8.5L14.1164 11.0234Z" fill="white"/>
</svg>
