<svg width="22" height="22" viewBox="0 0 22 22" fill="none" xmlns="http://www.w3.org/2000/svg">
<path d="M21.8765 2.34375V19.5312C21.8765 20.8257 20.8271 21.875 19.5327 21.875H2.34521C1.05078 21.875 0.00146484 20.8257 0.00146484 19.5312V2.34375C0.00146484 1.04932 1.05078 0 2.34521 0H19.5327C20.8271 0 21.8765 1.04932 21.8765 2.34375ZM17.5796 3.125H12.1123C11.0716 3.125 10.5458 4.38774 11.2836 5.12554L12.8453 6.6874L3.2981 16.2346C3.06929 16.4634 3.06929 16.8344 3.2981 17.0633L4.81318 18.5784C5.04204 18.8072 5.41304 18.8072 5.64185 18.5784L15.189 9.0312L16.7509 10.5933C17.4848 11.327 18.7515 10.8118 18.7515 9.7646V4.29688C18.7515 3.64966 18.2268 3.125 17.5796 3.125Z" fill="black"/>
</svg>
