<svg width="20" height="19" viewBox="0 0 20 19" fill="none" xmlns="http://www.w3.org/2000/svg">
<path d="M19.2755 4.24167L15.6185 0.730985C15.2261 0.354237 14.6938 0.142581 14.1388 0.142578H2.44981C1.29407 0.142578 0.357178 1.04199 0.357178 2.15151V16.8836C0.357178 17.9932 1.29407 18.8926 2.44981 18.8926H17.7958C18.9515 18.8926 19.8884 17.9932 19.8884 16.8836V5.66219C19.8884 5.12939 19.6679 4.61842 19.2755 4.24167ZM10.1228 16.214C8.58184 16.214 7.33262 15.0148 7.33262 13.5354C7.33262 12.0561 8.58184 10.8569 10.1228 10.8569C11.6638 10.8569 12.913 12.0561 12.913 13.5354C12.913 15.0148 11.6638 16.214 10.1228 16.214ZM14.3081 3.46903V7.67606C14.3081 7.95342 14.0738 8.17829 13.7849 8.17829H3.67051C3.3816 8.17829 3.14736 7.95342 3.14736 7.67606V3.32338C3.14736 3.04602 3.3816 2.82115 3.67051 2.82115H13.6332C13.772 2.82115 13.905 2.87405 14.0031 2.96826L14.1548 3.11391C14.2034 3.16054 14.242 3.2159 14.2683 3.27683C14.2945 3.33777 14.3081 3.40307 14.3081 3.46903Z" fill="white"/>
</svg>
