<svg width="25" height="20" viewBox="0 0 25 20" fill="none" xmlns="http://www.w3.org/2000/svg">
<path d="M22.9181 0H2.0848C0.934625 0 0.00146484 0.93316 0.00146484 2.08333V17.3611C0.00146484 18.5113 0.934625 19.4444 2.0848 19.4444H22.9181C24.0683 19.4444 25.0015 18.5113 25.0015 17.3611V2.08333C25.0015 0.93316 24.0683 0 22.9181 0ZM7.64035 4.16667C9.17247 4.16667 10.4181 5.41233 10.4181 6.94444C10.4181 8.47656 9.17247 9.72222 7.64035 9.72222C6.10824 9.72222 4.86258 8.47656 4.86258 6.94444C4.86258 5.41233 6.10824 4.16667 7.64035 4.16667ZM12.5015 14.4444C12.5015 14.9045 12.0674 15.2778 11.5292 15.2778H3.75146C3.21327 15.2778 2.77924 14.9045 2.77924 14.4444V13.6111C2.77924 12.2309 4.08567 11.1111 5.69591 11.1111H5.91292C6.44678 11.3325 7.02837 11.4583 7.64035 11.4583C8.25233 11.4583 8.83827 11.3325 9.36778 11.1111H9.5848C11.195 11.1111 12.5015 12.2309 12.5015 13.6111V14.4444ZM22.2237 12.1528C22.2237 12.3437 22.0674 12.5 21.8765 12.5H15.6265C15.4355 12.5 15.2792 12.3437 15.2792 12.1528V11.4583C15.2792 11.2674 15.4355 11.1111 15.6265 11.1111H21.8765C22.0674 11.1111 22.2237 11.2674 22.2237 11.4583V12.1528ZM22.2237 9.375C22.2237 9.56597 22.0674 9.72222 21.8765 9.72222H15.6265C15.4355 9.72222 15.2792 9.56597 15.2792 9.375V8.68055C15.2792 8.48958 15.4355 8.33333 15.6265 8.33333H21.8765C22.0674 8.33333 22.2237 8.48958 22.2237 8.68055V9.375ZM22.2237 6.59722C22.2237 6.78819 22.0674 6.94444 21.8765 6.94444H15.6265C15.4355 6.94444 15.2792 6.78819 15.2792 6.59722V5.90278C15.2792 5.7118 15.4355 5.55555 15.6265 5.55555H21.8765C22.0674 5.55555 22.2237 5.7118 22.2237 5.90278V6.59722Z" fill="#0084E2"/>
</svg>
