<svg width="18" height="18" viewBox="0 0 18 18" fill="none" xmlns="http://www.w3.org/2000/svg">
<g clip-path="url(#clip0_127_10496)">
<path d="M15.75 6.75V2.71582C15.75 2.41734 15.6315 2.13152 15.4206 1.92023L13.8294 0.329414C13.6185 0.118477 13.3323 0 13.0338 0H3.375C2.75379 0 2.25 0.503789 2.25 1.125V6.75C1.00723 6.75 0 7.75723 0 9V12.9375C0 13.2483 0.251719 13.5 0.5625 13.5H2.25V16.875C2.25 17.4962 2.75379 18 3.375 18H14.625C15.2462 18 15.75 17.4962 15.75 16.875V13.5H17.4375C17.7483 13.5 18 13.2483 18 12.9375V9C18 7.75723 16.9928 6.75 15.75 6.75ZM13.5 15.75H4.5V12.375H13.5V15.75ZM13.5 7.875H4.5V2.25H11.25V3.9375C11.25 4.24828 11.5017 4.5 11.8125 4.5H13.5V7.875ZM15.1875 10.4062C14.7217 10.4062 14.3438 10.0283 14.3438 9.5625C14.3438 9.09633 14.7217 8.71875 15.1875 8.71875C15.6533 8.71875 16.0312 9.09633 16.0312 9.5625C16.0312 10.0283 15.6533 10.4062 15.1875 10.4062Z" fill="white"/>
</g>
<defs>
<clipPath id="clip0_127_10496">
<rect width="18" height="18" fill="white"/>
</clipPath>
</defs>
</svg>
