<svg width="22" height="25" viewBox="0 0 22 25" fill="none" xmlns="http://www.w3.org/2000/svg">
<path d="M21.2905 7.8125C21.6128 7.8125 21.8765 7.54883 21.8765 7.22656V5.27344C21.8765 4.95117 21.6128 4.6875 21.2905 4.6875H20.314V2.34375C20.314 1.0498 19.2642 0 17.9702 0H2.34521C1.05127 0 0.00146484 1.0498 0.00146484 2.34375V22.6562C0.00146484 23.9502 1.05127 25 2.34521 25H17.9702C19.2642 25 20.314 23.9502 20.314 22.6562V20.3125H21.2905C21.6128 20.3125 21.8765 20.0488 21.8765 19.7266V17.7734C21.8765 17.4512 21.6128 17.1875 21.2905 17.1875H20.314V14.0625H21.2905C21.6128 14.0625 21.8765 13.7988 21.8765 13.4766V11.5234C21.8765 11.2012 21.6128 10.9375 21.2905 10.9375H20.314V7.8125H21.2905ZM10.1577 6.25C11.8813 6.25 13.2827 7.65137 13.2827 9.375C13.2827 11.0986 11.8813 12.5 10.1577 12.5C8.43408 12.5 7.03271 11.0986 7.03271 9.375C7.03271 7.65137 8.43408 6.25 10.1577 6.25ZM15.6265 17.8125C15.6265 18.3301 15.1382 18.75 14.5327 18.75H5.78271C5.17725 18.75 4.68896 18.3301 4.68896 17.8125V16.875C4.68896 15.3223 6.15869 14.0625 7.97021 14.0625H8.21436C8.81494 14.3115 9.46924 14.4531 10.1577 14.4531C10.8462 14.4531 11.5054 14.3115 12.1011 14.0625H12.3452C14.1567 14.0625 15.6265 15.3223 15.6265 16.875V17.8125Z" fill="black"/>
</svg>
