<svg width="22" height="22" viewBox="0 0 22 22" fill="none" xmlns="http://www.w3.org/2000/svg">
<path d="M0.00146484 9.375H9.37646V0H0.00146484V9.375ZM3.12646 3.125H6.25146V6.25H3.12646V3.125ZM12.5015 0V9.375H21.8765V0H12.5015ZM18.7515 6.25H15.6265V3.125H18.7515V6.25ZM0.00146484 21.875H9.37646V12.5H0.00146484V21.875ZM3.12646 15.625H6.25146V18.75H3.12646V15.625ZM20.314 12.5H21.8765V18.75H17.189V17.1875H15.6265V21.875H12.5015V12.5H17.189V14.0625H20.314V12.5ZM20.314 20.3125H21.8765V21.875H20.314V20.3125ZM17.189 20.3125H18.7515V21.875H17.189V20.3125Z" fill="#0084E2"/>
</svg>
