<svg width="198" height="168" viewBox="0 0 198 168" fill="none" xmlns="http://www.w3.org/2000/svg">
<path d="M176.001 0H22.0015C9.90146 0 0.00146484 8.4 0.00146484 18.6667V149.333C0.00146484 159.6 9.90146 168 22.0015 168H176.001C188.101 168 198.001 159.6 198.001 149.333V18.6667C198.001 8.4 188.101 0 176.001 0ZM99.0015 28C120.231 28 137.501 42.6533 137.501 60.6667C137.501 78.68 120.231 93.3333 99.0015 93.3333C77.7715 93.3333 60.5015 78.68 60.5015 60.6667C60.5015 42.6533 77.7715 28 99.0015 28ZM176.001 149.333H22.0015V147.187C22.0015 141.4 25.0815 135.987 30.3615 132.44C49.1715 119.653 73.0415 112 99.0015 112C124.961 112 148.831 119.653 167.641 132.44C172.921 135.987 176.001 141.493 176.001 147.187V149.333Z" fill="#6885E6"/>
</svg>
