<svg width="14" height="22" viewBox="0 0 14 22" fill="none" xmlns="http://www.w3.org/2000/svg">
<path d="M10.3599 10.1961L5.36397 8.8736C4.78575 8.72294 4.3833 8.23326 4.3833 7.68917C4.3833 7.00698 4.99391 6.45452 5.74792 6.45452H8.81484C9.37919 6.45452 9.93429 6.60938 10.3969 6.89397C10.679 7.06557 11.0584 7.02372 11.2989 6.81027L12.9087 5.38728C13.2371 5.09849 13.1909 4.61719 12.8254 4.36189C11.6921 3.55831 10.2766 3.11049 8.82409 3.10631V1.09738C8.82409 0.729074 8.49103 0.427734 8.08396 0.427734H6.60369C6.19662 0.427734 5.86356 0.729074 5.86356 1.09738V3.10631H5.74792C2.80127 3.10631 0.432846 5.39565 0.70577 8.11189C0.900055 10.0413 2.52834 11.6108 4.58221 12.1549L9.32368 13.4104C9.90191 13.5653 10.3044 14.0508 10.3044 14.5949C10.3044 15.2771 9.69374 15.8295 8.93973 15.8295H5.87281C5.30846 15.8295 4.75337 15.6747 4.29078 15.3901C4.00861 15.2185 3.62929 15.2603 3.38875 15.4738L1.77896 16.8968C1.45053 17.1855 1.49679 17.6669 1.86223 17.9222C2.99555 18.7257 4.41105 19.1735 5.86356 19.1777V21.1867C5.86356 21.555 6.19662 21.8563 6.60369 21.8563H8.08396C8.49103 21.8563 8.82409 21.555 8.82409 21.1867V19.1694C10.9797 19.1317 13.0012 17.9724 13.7136 16.1267C14.7081 13.5485 13.0382 10.9035 10.3599 10.1961Z" fill="white"/>
</svg>
